<svg width="160" height="160" viewBox="0 0 160 160" fill="none" xmlns="http://www.w3.org/2000/svg">
  <defs>
    <pattern id="batikDots" x="0" y="0" width="12" height="12" patternUnits="userSpaceOnUse">
      <circle cx="2" cy="2" r="1.6" fill="#f7f0d0" opacity="0.6" />
      <circle cx="8" cy="8" r="1.6" fill="#f7f0d0" opacity="0.4" />
    </pattern>
    <pattern id="batikLines" x="0" y="0" width="16" height="16" patternUnits="userSpaceOnUse">
      <path d="M0 0L16 16" stroke="#102347" stroke-width="1.2" stroke-opacity="0.16" />
      <path d="M16 0L0 16" stroke="#102347" stroke-width="1" stroke-opacity="0.12" />
    </pattern>
    <clipPath id="bubbleClip">
      <path d="M24 26C24 16.0589 32.0589 8 42 8H104C113.941 8 122 16.0589 122 26V78C122 87.9411 113.941 96 104 96H80.4371C79.559 96 78.7018 96.2899 78.0044 96.8247L55.8514 113.889C53.0915 116.009 49.2 114.043 49.2 110.695V96H42C32.0589 96 24 87.9411 24 78V26Z" />
    </clipPath>
  </defs>
  <rect width="160" height="160" rx="32" fill="#f7f8fc" />
  <g filter="url(#shadowLarge)">
    <path d="M32 40C32 28.9543 40.9543 20 52 20H112C123.046 20 132 28.9543 132 40V90C132 101.046 123.046 110 112 110H90.4249C88.9987 110 87.6237 110.508 86.5428 111.437L62.5016 132.001C58.9859 134.999 54 132.503 54 128.065V110H52C40.9543 110 32 101.046 32 90V40Z" fill="#102347" />
    <rect x="42" y="34" width="80" height="52" rx="16" fill="url(#batikLines)" opacity="0.8" />
    <rect x="42" y="34" width="80" height="52" rx="16" stroke="#fdf5db" stroke-width="2" opacity="0.3" />
  </g>
  <g filter="url(#shadowSmall)">
    <path d="M56 82C56 72.0589 64.0589 64 74 64H122C131.941 64 140 72.0589 140 82V112C140 121.941 131.941 130 122 130H113V140.646C113 143.856 109.176 145.457 107.022 143.187L96.9146 132.152C96.2542 131.452 95.3145 131.04 94.3312 131.04H74C64.0589 131.04 56 122.981 56 113.04V82Z" fill="#f2b705" />
    <rect x="68" y="78" width="56" height="34" rx="12" fill="url(#batikDots)" opacity="0.8" />
    <rect x="68" y="78" width="56" height="34" rx="12" stroke="#102347" stroke-width="1.6" opacity="0.4" />
  </g>
  <defs>
    <filter id="shadowLarge" x="18" y="12" width="130" height="140" filterUnits="userSpaceOnUse" color-interpolation-filters="sRGB">
      <feFlood flood-opacity="0" result="BackgroundImageFix" />
      <feGaussianBlur in="BackgroundImageFix" stdDeviation="6" />
      <feComposite in2="SourceAlpha" operator="in" result="effect1_backgroundBlur" />
      <feOffset dy="12" />
      <feGaussianBlur stdDeviation="14" />
      <feColorMatrix type="matrix" values="0 0 0 0 0.066 0 0 0 0 0.1098 0 0 0 0 0.2117 0 0 0 0.18 0" />
      <feBlend mode="normal" in2="effect1_backgroundBlur" result="effect2_dropShadow" />
      <feBlend mode="normal" in="SourceGraphic" in2="effect2_dropShadow" result="shape" />
    </filter>
    <filter id="shadowSmall" x="44" y="56" width="112" height="102" filterUnits="userSpaceOnUse" color-interpolation-filters="sRGB">
      <feFlood flood-opacity="0" result="BackgroundImageFix" />
      <feGaussianBlur in="BackgroundImageFix" stdDeviation="4" />
      <feComposite in2="SourceAlpha" operator="in" result="effect1_backgroundBlur" />
      <feOffset dy="10" />
      <feGaussianBlur stdDeviation="10" />
      <feColorMatrix type="matrix" values="0 0 0 0 0.5294 0 0 0 0 0.3529 0 0 0 0 0.0745 0 0 0 0.24 0" />
      <feBlend mode="normal" in2="effect1_backgroundBlur" result="effect2_dropShadow" />
      <feBlend mode="normal" in="SourceGraphic" in2="effect2_dropShadow" result="shape" />
    </filter>
  </defs>
</svg>
